<svg width="1000" height="1000" viewBox="0 0 1000 1000" fill="none" xmlns="http://www.w3.org/2000/svg">
<rect width="1000" height="1000" rx="200" fill="#2A3439"/>
<line x1="338.5" y1="785" x2="728.5" y2="785" stroke="url(#paint0_linear_205_240)" stroke-width="130"/>
<path d="M188.5 850L313.5 150H591.5C635.5 150 673.833 158 706.5 174C739.833 190 765.5 212 783.5 240C802.167 268 811.5 300.333 811.5 337C811.5 381.667 800.167 422.667 777.5 460C755.5 496.667 722.5 526 678.5 548C634.5 569.333 579.833 580 514.5 580H393.5L346.5 850H188.5ZM418.5 445H535.5C572.833 445 601.167 437.667 620.5 423C640.5 407.667 650.5 386.333 650.5 359C650.5 333.667 641.5 315 623.5 303C606.167 291 585.833 285 562.5 285H445.5L418.5 445Z" fill="#FFF5EE"/>
<defs>
<linearGradient id="paint0_linear_205_240" x1="338.5" y1="850.5" x2="728.5" y2="850.5" gradientUnits="userSpaceOnUse">
<stop stop-color="#FFF5EE"/>
<stop offset="0.7" stop-color="#89CFF0"/>
</linearGradient>
</defs>
</svg>
