<svg
  width="100"
  height="100"
  viewBox="0 0 100 100"
  fill="none"
  xmlns="http://www.w3.org/2000/svg"
>
  <g clip-path="url(#clip0_54_175)">
    <mask id="path-1-inside-1_54_175" fill="white">
      <path
        d="M47.2234 81.9534C46.4384 82.0511 45.8796 82.5422 45.3282 83.0451C45.2201 83.1437 45.1341 83.2752 45.0119 83.3478C44.7984 83.4746 44.5647 83.5674 44.3395 83.6745C44.299 83.447 44.2684 83.217 44.2139 82.9929C44.184 82.8701 44.1137 82.7571 44.0616 82.6396C43.9362 82.6992 43.7634 82.7254 43.6937 82.8243C43.4271 83.2024 43.0677 83.2586 42.6593 83.1809C40.6044 82.7897 38.5323 82.7223 36.4539 82.8897C34.6281 83.0367 32.8058 83.2257 30.9827 83.404C30.8884 83.4132 30.8061 83.5124 30.7097 83.5401C30.4905 83.6032 30.266 83.6479 30.0436 83.7001C30.0232 83.4548 29.9031 83.1556 30.0011 82.9742C30.3025 82.4165 30.6872 81.9038 31.0706 81.3269C30.1063 81.4243 29.2547 81.6493 28.54 82.2639C28.3198 82.4533 28.0878 82.6405 27.8322 82.7727C27.6668 82.8584 27.4489 82.8425 27.2545 82.8721C27.2379 82.676 27.1559 82.4568 27.2154 82.2874C27.5963 81.203 28.395 80.4898 29.4666 80.2002C30.2836 79.9795 31.1584 79.9273 32.011 79.895C33.2786 79.8469 34.5505 79.9131 35.8185 79.8699C36.4918 79.847 37.1612 79.6991 37.8316 79.6019C38.3754 79.523 38.7261 79.1853 38.9648 78.7168C39.2488 78.1596 39.4945 77.5808 39.8085 77.0414C40.082 76.5716 40.4273 76.1436 40.7006 75.7545C39.138 75.2557 37.5026 74.7932 35.9102 74.2127C32.7849 73.0735 29.868 71.5382 27.3497 69.3315C24.4298 66.7726 22.4468 63.5925 21.7224 59.79C20.7747 54.8151 21.9554 50.2087 24.7198 45.9983C25.0109 45.555 25.4159 45.1865 25.7617 44.7906C24.7507 43.2707 23.8749 41.7067 23.446 39.8707C22.2789 39.6423 21.0869 39.3884 19.8873 39.1787C17.3591 38.7366 14.8179 38.43 12.2428 38.5757C11.8875 38.5958 11.5335 38.6678 11.1792 38.6656C10.9908 38.6645 10.6772 38.5968 10.6417 38.4872C10.5715 38.2711 10.5755 37.9565 10.6897 37.7678C11.1814 36.9557 11.8227 36.2734 12.6179 35.7366C14.1591 34.6963 15.9137 34.1672 17.6526 33.5949C19.4032 33.0188 21.1485 32.4267 22.9009 31.8561C23.1557 31.7731 23.2423 31.6484 23.2674 31.3855C23.5336 28.5898 24.3101 25.9391 25.7499 23.5264C28.0057 19.7465 31.3013 17.1698 35.3548 15.5413C37.3234 14.7504 39.3813 14.3185 41.5001 14.149C46.3257 13.7629 50.8799 14.7346 55.0235 17.1854C60.1884 20.2402 63.3477 24.8416 64.7549 30.6671C65.2298 32.6333 65.4616 34.6218 65.4023 36.6379C65.3734 37.6188 65.2303 38.5964 65.132 39.6495C65.7878 39.991 66.5608 40.3806 67.3221 40.7921C70.8452 42.6964 73.7686 45.3078 76.1948 48.4695C77.1751 49.7469 78.0813 51.0932 78.8935 52.4828C79.3276 53.2254 79.5336 54.1153 79.7559 54.9615C79.8643 55.3744 80.0277 55.6459 80.3947 55.848C83.9452 57.8043 87.4935 59.7648 91.0348 61.7377C91.6683 62.0907 92.2699 62.5016 92.8789 62.8971C93.0262 62.9928 93.1645 63.1183 93.2717 63.2572C93.5615 63.6328 93.4692 63.9798 93.0114 64.1128C92.5968 64.2332 92.1628 64.3161 91.7325 64.347C90.1296 64.4622 88.5173 64.4855 86.9238 64.6732C86.1119 64.7688 85.3331 65.1425 84.5385 65.3874C82.0274 66.1612 79.5292 66.9813 76.9982 67.6835C75.9494 67.9745 74.8316 68.0231 73.7425 68.1607C73.0512 68.248 72.3529 68.2812 71.6624 68.3737C71.5108 68.394 71.3615 68.5456 71.241 68.6665C69.2602 70.6558 67.0299 72.3206 64.5258 73.5747C63.2279 74.2247 61.8329 74.6897 60.4592 75.1744C59.9468 75.3552 59.6686 75.6128 59.4552 76.1183C58.8689 77.5071 58.1988 78.8604 57.5622 80.228C57.4884 80.3867 57.4169 80.5466 57.3402 80.7149C58.332 80.7963 59.3102 80.8542 60.2829 80.9621C61.466 81.0933 62.5011 81.5396 63.1781 82.5749C63.2942 82.7524 63.2522 83.0333 63.2832 83.2664C63.0449 83.2737 62.791 83.3371 62.5717 83.2759C62.1775 83.166 61.8041 82.9814 61.4229 82.8283C61.0443 83.7736 60.9531 83.7878 60.0346 83.7112C58.1423 83.5535 56.2449 83.3304 54.3515 83.3466C52.3342 83.3638 50.3071 83.543 48.3424 84.0858C47.8501 84.2218 47.3835 84.4497 46.8945 84.601C46.7524 84.645 46.5192 84.6256 46.4261 84.5346C46.3257 84.4365 46.2625 84.1847 46.3185 84.0617C46.6164 83.4085 46.9568 82.7746 47.3198 82.0852C47.3125 82.0088 47.2679 81.9811 47.2234 81.9534ZM63.1489 39.8573C63.299 39.682 63.545 39.5251 63.5827 39.3282C63.7435 38.4902 63.9099 37.6436 63.9509 36.7941C64.0484 34.7756 63.7578 32.7904 63.2827 30.8302C62.142 26.1234 59.6792 22.2079 55.7686 19.4039C51.1871 16.1189 45.9567 15.0084 40.3597 15.7122C36.8864 16.149 33.7826 17.501 31.0411 19.655C29.2323 21.0762 27.6076 22.6931 26.7006 24.8609C26.1072 26.2792 25.6113 27.7407 25.1284 29.2016C24.905 29.8775 24.8171 30.5982 24.6599 31.3351C26.5954 30.9672 29.1039 31.7254 30.5611 33.0446C31.1868 33.6111 31.8313 34.1595 32.4981 34.6763C32.7069 34.8381 33.0134 34.9332 33.2809 34.9467C33.7486 34.9704 34.2205 34.8876 34.6909 34.8844C36.1354 34.8743 37.58 34.8807 39.0545 34.8807C38.4282 33.5342 38.4639 32.159 38.7299 30.7734C39.2553 28.037 41.9078 26.0067 44.3899 25.75C47.0259 25.4774 49.4954 26.4757 50.743 29.031C51.8658 31.3306 52.0688 33.715 50.5978 35.9039C49.1933 37.994 47.1149 39.0152 44.5354 38.8932C42.6565 38.8044 41.1753 37.9754 39.9711 36.5691C39.8589 36.4381 39.6283 36.3467 39.4507 36.3434C38.2956 36.322 37.1398 36.3171 35.9845 36.3328C35.0921 36.3449 34.1985 36.3733 33.3089 36.4406C33.0259 36.4619 32.6394 36.548 32.4951 36.7463C31.3191 38.3625 29.7394 39.3685 27.8331 39.8422C26.9256 40.0676 25.9746 40.1181 25.0676 40.2445C25.1268 40.3856 25.2124 40.589 25.2973 40.7928C25.8559 42.1337 26.4357 43.4768 27.4854 44.5129C29.4653 46.4672 31.9389 47.4579 34.6393 47.8264C37.0473 48.155 39.4756 48.0041 41.8746 47.6353C45.5078 47.0768 49.0242 46.0608 52.5 44.8726C56.2169 43.602 59.6333 41.712 63.1489 39.8573ZM27.0219 66.8732C29.6364 69.6825 32.8768 71.5149 36.4298 72.8314C39.2084 73.8609 42.0731 74.5983 44.9963 75.0833C46.6955 75.3652 48.4142 75.5341 50.137 75.3854C52.008 75.2239 53.8726 74.9892 55.7406 74.7922C56.346 74.7283 56.8388 74.5456 57.1279 73.9297C57.3521 73.4521 57.6997 73.0336 57.9774 72.5796C58.165 72.2728 58.4254 72.1829 58.7128 72.3673C59.1991 72.6793 59.6792 73.0092 60.1189 73.3823C60.3552 73.5829 60.5342 73.6994 60.843 73.559C61.6764 73.1804 62.5283 72.8419 63.3573 72.454C66.193 71.1271 68.6803 69.322 70.7667 66.9804C71.3445 66.3318 71.8098 65.6092 72.123 64.7618C71.0853 64.6654 70.1002 64.5833 69.1172 64.4802C67.8766 64.3502 66.6351 64.2224 65.3987 64.0586C63.8457 63.8529 62.2932 63.6361 60.7488 63.375C60.0013 63.2485 59.33 63.0487 58.524 63.3545C56.7113 64.042 54.8865 63.6413 53.1313 63.0163C50.0853 61.9316 47.8134 59.8836 46.0699 57.1989C45.1697 55.8128 44.3275 54.3857 44.1119 52.7277C43.9417 51.4185 43.9675 50.0839 43.9039 48.7101C43.3686 48.8022 42.7416 48.9389 42.1074 49.0142C39.3759 49.3385 36.6407 49.5026 33.8987 49.1228C31.781 48.8295 29.7979 48.1746 28.0388 46.9298C27.5307 46.5703 27.0482 46.1745 26.4462 45.7127C25.7355 47.0726 24.9688 48.3455 24.3836 49.697C22.8643 53.2059 22.4435 56.8348 23.4368 60.5768C24.0719 62.9692 25.3123 65.0144 27.0219 66.8732ZM45.4211 50.7299C45.3908 51.7248 45.4906 52.7024 45.8645 53.633C46.9274 56.2787 48.617 58.442 50.8953 60.1536C52.7361 61.5366 54.7765 62.3054 57.1033 62.2058C58.1124 62.1626 58.996 61.7952 59.777 61.1577C58.7727 60.3852 57.7791 59.6614 56.8329 58.8802C56.093 58.2692 55.3505 57.6332 55.0632 56.5117C56.7732 57.9841 58.6383 59.0068 60.5268 59.9859C61.7173 60.6031 62.9899 60.9636 64.344 60.831C65.1624 60.7509 65.8902 60.3962 66.2852 59.6359C66.6483 58.9372 66.2413 57.7817 65.4718 57.249C64.0643 56.2746 62.6425 55.3205 61.2117 54.3807C60.9385 54.2012 60.6067 54.0695 60.2847 54.0123C58.1778 53.6379 56.225 52.8969 54.4741 51.6524C54.3408 51.5576 54.2114 51.4575 54.0801 51.3599C54.1023 51.3095 54.1244 51.2592 54.1466 51.2088C54.6918 51.3161 55.2504 51.3788 55.7798 51.5384C57.972 52.1994 60.1868 52.7416 62.4701 52.9774C63.1789 53.0506 63.9014 53.0589 64.4726 52.6195C64.7704 52.3903 64.884 51.9218 65.0887 51.547C65.0918 51.5488 65.1876 51.6065 65.2863 51.6588C66.8152 52.4699 68.3301 53.3104 70.0247 53.7493C70.9742 53.9952 71.9189 54.1714 72.879 53.8102C73.1826 53.696 73.3377 53.5305 73.171 53.1846C72.9646 52.7562 72.7839 52.3155 72.5733 51.8374C74.5774 52.344 76.2302 53.5494 78.083 54.3648C77.9188 53.8981 77.7676 53.432 77.5004 53.0465C76.4974 51.5993 75.4963 50.1477 74.4218 48.7538C71.799 45.3509 68.4372 42.8676 64.5838 41.0228C64.4519 40.9596 64.2376 40.9645 64.1037 41.0273C63.4319 41.342 62.7744 41.6872 62.1114 42.0205C60.0588 43.0523 58.0381 44.1549 55.9458 45.0987C52.6609 46.5805 49.2519 47.7142 45.6953 48.3697C45.5793 48.3911 45.4301 48.6336 45.4237 48.7787C45.3967 49.3956 45.4176 50.0147 45.4211 50.7299ZM47.5927 36.8151C49.3238 35.7392 50.0942 34.1593 50.1046 32.1454C50.118 29.5393 47.8608 26.5275 44.3582 27.2449C40.9369 27.9456 39.4832 30.682 40.136 33.6264C40.8697 36.936 44.5232 38.4422 47.5927 36.8151ZM54.773 78.1521C55.0904 77.5372 55.4078 76.9223 55.7378 76.2829C55.5749 76.2829 55.4478 76.2694 55.3244 76.2851C54.3783 76.4053 53.436 76.5683 52.4867 76.6486C49.5305 76.8988 46.5917 76.7454 43.6769 76.1812C43.2414 76.0969 42.8489 76.1144 42.56 76.5253C42.4494 76.6825 42.2899 76.8056 42.1515 76.9431C41.2258 77.8623 40.9404 78.9936 41.0193 80.2454C42.3659 80.564 43.8144 80.5299 44.7633 81.7607C45.3921 80.9146 46.2855 80.6376 47.2362 80.5784C48.5302 80.4979 49.8294 80.4758 51.1264 80.4767C52.6633 80.4779 53.8537 79.9276 54.5551 78.5013C54.6048 78.4002 54.6722 78.3077 54.773 78.1521ZM20.901 34.1356C18.1913 34.938 15.431 35.6105 12.9561 37.1591C14.2817 37.0795 15.54 36.9442 16.7987 36.9395C20.7274 36.9246 24.6431 36.7616 28.5276 36.1306C29.4326 35.9836 30.3333 35.8097 31.2486 35.6459C30.5521 35.0316 29.9479 34.4136 29.2603 33.9096C27.7985 32.8381 26.2247 32.2665 24.3882 32.966C23.2681 33.3926 22.1119 33.7244 20.901 34.1356ZM63.6567 54.5525C65.3847 55.5844 67.0565 56.7299 68.8544 57.6208C71.3602 58.8624 73.9712 59.2557 76.5963 57.8304C77.3151 57.4401 77.7627 56.8593 78.056 56.13C76.7718 55.3947 75.5357 54.687 74.3849 54.0281C74.1583 54.3651 74.0182 54.7943 73.7293 54.9538C73.2523 55.2171 72.6841 55.4246 72.1457 55.4468C70.4822 55.5154 68.9388 55.0032 67.482 54.2339C66.8598 53.9053 66.2673 53.5203 65.6041 53.127C65.5286 54.0532 64.8231 54.1318 64.1836 54.291C63.9799 54.3417 63.7692 54.3648 63.5617 54.4005C63.5736 54.4371 63.5854 54.4737 63.6567 54.5525ZM76.2459 59.5982C75.6477 59.7755 75.0495 59.9528 74.3596 60.1572C79.4111 62.1922 84.5745 63.144 89.9627 62.9394C86.3876 60.9541 82.8125 58.9687 79.2324 56.9806C78.8918 57.8972 78.3403 58.6467 77.4165 59.0715C77.0509 59.2397 76.684 59.4052 76.2459 59.5982ZM66.4518 61.5244C66.0589 61.7376 65.666 61.9509 65.2159 62.1952C69.0046 63.0675 72.7362 63.9848 76.6187 62.5694C76.4665 62.4954 76.3846 62.4377 76.2939 62.4141C75.0323 62.0862 73.8743 61.5181 72.8162 60.7793C72.0767 60.263 71.2923 59.9288 70.4314 59.6862C69.5324 59.4329 68.6662 59.0634 67.78 58.7426C67.8121 59.8497 67.5247 60.8353 66.4518 61.5244ZM81.2667 63.7054C80.8771 63.6092 80.4914 63.4895 80.0968 63.4224C79.5567 63.3305 79.0477 63.1498 78.4553 63.3616C77.1755 63.819 75.8576 64.1693 74.5578 64.5716C74.4279 64.6118 74.2728 64.6792 74.2019 64.7833C73.7811 65.4019 73.3816 66.035 72.9528 66.6975C76.7004 66.6462 80.0926 65.4467 83.4772 64.1107C82.7392 63.985 82.0388 63.8658 81.2667 63.7054ZM54.4997 80.7212C54.0092 81.2425 53.4373 81.5985 52.7036 81.6719C51.9967 81.7427 51.2941 81.8547 50.5877 81.9303C49.7149 82.0236 48.874 82.1701 48.2893 83.074C50.3063 82.4302 52.2875 81.963 54.3406 82.0494C56.3741 82.135 58.4043 82.2999 60.4359 82.43C60.4442 82.3888 60.4525 82.3476 60.4608 82.3063C60.1904 82.2469 59.9228 82.1635 59.6491 82.1322C58.7 82.0237 57.7473 81.946 56.7991 81.8307C56.3136 81.7717 56.0112 81.4527 56.0691 80.9735C56.1274 80.4918 56.2583 79.9994 56.4589 79.5579C57.2163 77.8911 58.0193 76.245 58.7906 74.5844C58.8569 74.4417 58.8152 74.2488 58.8237 74.0793C58.7649 74.0689 58.706 74.0586 58.6472 74.0482C58.2392 74.8571 57.828 75.6645 57.4238 76.4753C56.6599 78.0078 55.8824 79.5304 54.4997 80.7212ZM27.5591 37.4924C27.4941 37.495 27.4277 37.4894 27.3645 37.5013C25.4977 37.85 23.6202 38.0684 21.716 37.9931C21.5805 37.9878 21.442 38.06 21.3048 38.0961C21.4714 38.2201 21.6252 38.2578 21.7812 38.281C22.3719 38.3689 22.9638 38.4484 23.5542 38.5378C24.906 38.7424 26.2568 38.8552 27.597 38.4707C28.4568 38.224 29.2408 37.8418 29.9306 37.0947C29.0992 37.2333 28.3711 37.3546 27.5591 37.4924ZM37.947 80.9818C37.8212 81.0056 37.6961 81.0435 37.5693 81.0509C36.402 81.1197 35.2321 81.1567 34.0677 81.258C33.3517 81.3202 32.6639 81.522 32.1382 82.0846C33.3475 81.9319 34.5271 81.7363 35.7146 81.646C36.894 81.5562 38.0831 81.5202 39.2649 81.5569C40.4126 81.5926 41.5566 81.7506 42.7022 81.8548C42.0873 81.6651 41.4708 81.5535 40.8536 81.4456C40.1858 81.3288 39.5987 81.1238 39.6096 80.3473C39.0657 80.5577 38.5465 80.7586 37.947 80.9818ZM62.6878 62.407C62.7201 62.4078 62.7531 62.4132 62.7845 62.4082C62.8082 62.4044 62.8299 62.3874 62.8872 62.3591C62.5833 62.249 62.3066 62.1482 62.0294 62.0488C61.7466 61.9474 61.4633 61.8475 61.168 61.7426C61.0266 61.943 60.8837 62.1456 60.7439 62.3439C60.7825 62.3778 60.7931 62.3952 60.8038 62.3952C61.4028 62.399 62.0018 62.4014 62.6878 62.407Z"
      />
    </mask>
    <path
      d="M47.2234 81.9534C46.4384 82.0511 45.8796 82.5422 45.3282 83.0451C45.2201 83.1437 45.1341 83.2752 45.0119 83.3478C44.7984 83.4746 44.5647 83.5674 44.3395 83.6745C44.299 83.447 44.2684 83.217 44.2139 82.9929C44.184 82.8701 44.1137 82.7571 44.0616 82.6396C43.9362 82.6992 43.7634 82.7254 43.6937 82.8243C43.4271 83.2024 43.0677 83.2586 42.6593 83.1809C40.6044 82.7897 38.5323 82.7223 36.4539 82.8897C34.6281 83.0367 32.8058 83.2257 30.9827 83.404C30.8884 83.4132 30.8061 83.5124 30.7097 83.5401C30.4905 83.6032 30.266 83.6479 30.0436 83.7001C30.0232 83.4548 29.9031 83.1556 30.0011 82.9742C30.3025 82.4165 30.6872 81.9038 31.0706 81.3269C30.1063 81.4243 29.2547 81.6493 28.54 82.2639C28.3198 82.4533 28.0878 82.6405 27.8322 82.7727C27.6668 82.8584 27.4489 82.8425 27.2545 82.8721C27.2379 82.676 27.1559 82.4568 27.2154 82.2874C27.5963 81.203 28.395 80.4898 29.4666 80.2002C30.2836 79.9795 31.1584 79.9273 32.011 79.895C33.2786 79.8469 34.5505 79.9131 35.8185 79.8699C36.4918 79.847 37.1612 79.6991 37.8316 79.6019C38.3754 79.523 38.7261 79.1853 38.9648 78.7168C39.2488 78.1596 39.4945 77.5808 39.8085 77.0414C40.082 76.5716 40.4273 76.1436 40.7006 75.7545C39.138 75.2557 37.5026 74.7932 35.9102 74.2127C32.7849 73.0735 29.868 71.5382 27.3497 69.3315C24.4298 66.7726 22.4468 63.5925 21.7224 59.79C20.7747 54.8151 21.9554 50.2087 24.7198 45.9983C25.0109 45.555 25.4159 45.1865 25.7617 44.7906C24.7507 43.2707 23.8749 41.7067 23.446 39.8707C22.2789 39.6423 21.0869 39.3884 19.8873 39.1787C17.3591 38.7366 14.8179 38.43 12.2428 38.5757C11.8875 38.5958 11.5335 38.6678 11.1792 38.6656C10.9908 38.6645 10.6772 38.5968 10.6417 38.4872C10.5715 38.2711 10.5755 37.9565 10.6897 37.7678C11.1814 36.9557 11.8227 36.2734 12.6179 35.7366C14.1591 34.6963 15.9137 34.1672 17.6526 33.5949C19.4032 33.0188 21.1485 32.4267 22.9009 31.8561C23.1557 31.7731 23.2423 31.6484 23.2674 31.3855C23.5336 28.5898 24.3101 25.9391 25.7499 23.5264C28.0057 19.7465 31.3013 17.1698 35.3548 15.5413C37.3234 14.7504 39.3813 14.3185 41.5001 14.149C46.3257 13.7629 50.8799 14.7346 55.0235 17.1854C60.1884 20.2402 63.3477 24.8416 64.7549 30.6671C65.2298 32.6333 65.4616 34.6218 65.4023 36.6379C65.3734 37.6188 65.2303 38.5964 65.132 39.6495C65.7878 39.991 66.5608 40.3806 67.3221 40.7921C70.8452 42.6964 73.7686 45.3078 76.1948 48.4695C77.1751 49.7469 78.0813 51.0932 78.8935 52.4828C79.3276 53.2254 79.5336 54.1153 79.7559 54.9615C79.8643 55.3744 80.0277 55.6459 80.3947 55.848C83.9452 57.8043 87.4935 59.7648 91.0348 61.7377C91.6683 62.0907 92.2699 62.5016 92.8789 62.8971C93.0262 62.9928 93.1645 63.1183 93.2717 63.2572C93.5615 63.6328 93.4692 63.9798 93.0114 64.1128C92.5968 64.2332 92.1628 64.3161 91.7325 64.347C90.1296 64.4622 88.5173 64.4855 86.9238 64.6732C86.1119 64.7688 85.3331 65.1425 84.5385 65.3874C82.0274 66.1612 79.5292 66.9813 76.9982 67.6835C75.9494 67.9745 74.8316 68.0231 73.7425 68.1607C73.0512 68.248 72.3529 68.2812 71.6624 68.3737C71.5108 68.394 71.3615 68.5456 71.241 68.6665C69.2602 70.6558 67.0299 72.3206 64.5258 73.5747C63.2279 74.2247 61.8329 74.6897 60.4592 75.1744C59.9468 75.3552 59.6686 75.6128 59.4552 76.1183C58.8689 77.5071 58.1988 78.8604 57.5622 80.228C57.4884 80.3867 57.4169 80.5466 57.3402 80.7149C58.332 80.7963 59.3102 80.8542 60.2829 80.9621C61.466 81.0933 62.5011 81.5396 63.1781 82.5749C63.2942 82.7524 63.2522 83.0333 63.2832 83.2664C63.0449 83.2737 62.791 83.3371 62.5717 83.2759C62.1775 83.166 61.8041 82.9814 61.4229 82.8283C61.0443 83.7736 60.9531 83.7878 60.0346 83.7112C58.1423 83.5535 56.2449 83.3304 54.3515 83.3466C52.3342 83.3638 50.3071 83.543 48.3424 84.0858C47.8501 84.2218 47.3835 84.4497 46.8945 84.601C46.7524 84.645 46.5192 84.6256 46.4261 84.5346C46.3257 84.4365 46.2625 84.1847 46.3185 84.0617C46.6164 83.4085 46.9568 82.7746 47.3198 82.0852C47.3125 82.0088 47.2679 81.9811 47.2234 81.9534ZM63.1489 39.8573C63.299 39.682 63.545 39.5251 63.5827 39.3282C63.7435 38.4902 63.9099 37.6436 63.9509 36.7941C64.0484 34.7756 63.7578 32.7904 63.2827 30.8302C62.142 26.1234 59.6792 22.2079 55.7686 19.4039C51.1871 16.1189 45.9567 15.0084 40.3597 15.7122C36.8864 16.149 33.7826 17.501 31.0411 19.655C29.2323 21.0762 27.6076 22.6931 26.7006 24.8609C26.1072 26.2792 25.6113 27.7407 25.1284 29.2016C24.905 29.8775 24.8171 30.5982 24.6599 31.3351C26.5954 30.9672 29.1039 31.7254 30.5611 33.0446C31.1868 33.6111 31.8313 34.1595 32.4981 34.6763C32.7069 34.8381 33.0134 34.9332 33.2809 34.9467C33.7486 34.9704 34.2205 34.8876 34.6909 34.8844C36.1354 34.8743 37.58 34.8807 39.0545 34.8807C38.4282 33.5342 38.4639 32.159 38.7299 30.7734C39.2553 28.037 41.9078 26.0067 44.3899 25.75C47.0259 25.4774 49.4954 26.4757 50.743 29.031C51.8658 31.3306 52.0688 33.715 50.5978 35.9039C49.1933 37.994 47.1149 39.0152 44.5354 38.8932C42.6565 38.8044 41.1753 37.9754 39.9711 36.5691C39.8589 36.4381 39.6283 36.3467 39.4507 36.3434C38.2956 36.322 37.1398 36.3171 35.9845 36.3328C35.0921 36.3449 34.1985 36.3733 33.3089 36.4406C33.0259 36.4619 32.6394 36.548 32.4951 36.7463C31.3191 38.3625 29.7394 39.3685 27.8331 39.8422C26.9256 40.0676 25.9746 40.1181 25.0676 40.2445C25.1268 40.3856 25.2124 40.589 25.2973 40.7928C25.8559 42.1337 26.4357 43.4768 27.4854 44.5129C29.4653 46.4672 31.9389 47.4579 34.6393 47.8264C37.0473 48.155 39.4756 48.0041 41.8746 47.6353C45.5078 47.0768 49.0242 46.0608 52.5 44.8726C56.2169 43.602 59.6333 41.712 63.1489 39.8573ZM27.0219 66.8732C29.6364 69.6825 32.8768 71.5149 36.4298 72.8314C39.2084 73.8609 42.0731 74.5983 44.9963 75.0833C46.6955 75.3652 48.4142 75.5341 50.137 75.3854C52.008 75.2239 53.8726 74.9892 55.7406 74.7922C56.346 74.7283 56.8388 74.5456 57.1279 73.9297C57.3521 73.4521 57.6997 73.0336 57.9774 72.5796C58.165 72.2728 58.4254 72.1829 58.7128 72.3673C59.1991 72.6793 59.6792 73.0092 60.1189 73.3823C60.3552 73.5829 60.5342 73.6994 60.843 73.559C61.6764 73.1804 62.5283 72.8419 63.3573 72.454C66.193 71.1271 68.6803 69.322 70.7667 66.9804C71.3445 66.3318 71.8098 65.6092 72.123 64.7618C71.0853 64.6654 70.1002 64.5833 69.1172 64.4802C67.8766 64.3502 66.6351 64.2224 65.3987 64.0586C63.8457 63.8529 62.2932 63.6361 60.7488 63.375C60.0013 63.2485 59.33 63.0487 58.524 63.3545C56.7113 64.042 54.8865 63.6413 53.1313 63.0163C50.0853 61.9316 47.8134 59.8836 46.0699 57.1989C45.1697 55.8128 44.3275 54.3857 44.1119 52.7277C43.9417 51.4185 43.9675 50.0839 43.9039 48.7101C43.3686 48.8022 42.7416 48.9389 42.1074 49.0142C39.3759 49.3385 36.6407 49.5026 33.8987 49.1228C31.781 48.8295 29.7979 48.1746 28.0388 46.9298C27.5307 46.5703 27.0482 46.1745 26.4462 45.7127C25.7355 47.0726 24.9688 48.3455 24.3836 49.697C22.8643 53.2059 22.4435 56.8348 23.4368 60.5768C24.0719 62.9692 25.3123 65.0144 27.0219 66.8732ZM45.4211 50.7299C45.3908 51.7248 45.4906 52.7024 45.8645 53.633C46.9274 56.2787 48.617 58.442 50.8953 60.1536C52.7361 61.5366 54.7765 62.3054 57.1033 62.2058C58.1124 62.1626 58.996 61.7952 59.777 61.1577C58.7727 60.3852 57.7791 59.6614 56.8329 58.8802C56.093 58.2692 55.3505 57.6332 55.0632 56.5117C56.7732 57.9841 58.6383 59.0068 60.5268 59.9859C61.7173 60.6031 62.9899 60.9636 64.344 60.831C65.1624 60.7509 65.8902 60.3962 66.2852 59.6359C66.6483 58.9372 66.2413 57.7817 65.4718 57.249C64.0643 56.2746 62.6425 55.3205 61.2117 54.3807C60.9385 54.2012 60.6067 54.0695 60.2847 54.0123C58.1778 53.6379 56.225 52.8969 54.4741 51.6524C54.3408 51.5576 54.2114 51.4575 54.0801 51.3599C54.1023 51.3095 54.1244 51.2592 54.1466 51.2088C54.6918 51.3161 55.2504 51.3788 55.7798 51.5384C57.972 52.1994 60.1868 52.7416 62.4701 52.9774C63.1789 53.0506 63.9014 53.0589 64.4726 52.6195C64.7704 52.3903 64.884 51.9218 65.0887 51.547C65.0918 51.5488 65.1876 51.6065 65.2863 51.6588C66.8152 52.4699 68.3301 53.3104 70.0247 53.7493C70.9742 53.9952 71.9189 54.1714 72.879 53.8102C73.1826 53.696 73.3377 53.5305 73.171 53.1846C72.9646 52.7562 72.7839 52.3155 72.5733 51.8374C74.5774 52.344 76.2302 53.5494 78.083 54.3648C77.9188 53.8981 77.7676 53.432 77.5004 53.0465C76.4974 51.5993 75.4963 50.1477 74.4218 48.7538C71.799 45.3509 68.4372 42.8676 64.5838 41.0228C64.4519 40.9596 64.2376 40.9645 64.1037 41.0273C63.4319 41.342 62.7744 41.6872 62.1114 42.0205C60.0588 43.0523 58.0381 44.1549 55.9458 45.0987C52.6609 46.5805 49.2519 47.7142 45.6953 48.3697C45.5793 48.3911 45.4301 48.6336 45.4237 48.7787C45.3967 49.3956 45.4176 50.0147 45.4211 50.7299ZM47.5927 36.8151C49.3238 35.7392 50.0942 34.1593 50.1046 32.1454C50.118 29.5393 47.8608 26.5275 44.3582 27.2449C40.9369 27.9456 39.4832 30.682 40.136 33.6264C40.8697 36.936 44.5232 38.4422 47.5927 36.8151ZM54.773 78.1521C55.0904 77.5372 55.4078 76.9223 55.7378 76.2829C55.5749 76.2829 55.4478 76.2694 55.3244 76.2851C54.3783 76.4053 53.436 76.5683 52.4867 76.6486C49.5305 76.8988 46.5917 76.7454 43.6769 76.1812C43.2414 76.0969 42.8489 76.1144 42.56 76.5253C42.4494 76.6825 42.2899 76.8056 42.1515 76.9431C41.2258 77.8623 40.9404 78.9936 41.0193 80.2454C42.3659 80.564 43.8144 80.5299 44.7633 81.7607C45.3921 80.9146 46.2855 80.6376 47.2362 80.5784C48.5302 80.4979 49.8294 80.4758 51.1264 80.4767C52.6633 80.4779 53.8537 79.9276 54.5551 78.5013C54.6048 78.4002 54.6722 78.3077 54.773 78.1521ZM20.901 34.1356C18.1913 34.938 15.431 35.6105 12.9561 37.1591C14.2817 37.0795 15.54 36.9442 16.7987 36.9395C20.7274 36.9246 24.6431 36.7616 28.5276 36.1306C29.4326 35.9836 30.3333 35.8097 31.2486 35.6459C30.5521 35.0316 29.9479 34.4136 29.2603 33.9096C27.7985 32.8381 26.2247 32.2665 24.3882 32.966C23.2681 33.3926 22.1119 33.7244 20.901 34.1356ZM63.6567 54.5525C65.3847 55.5844 67.0565 56.7299 68.8544 57.6208C71.3602 58.8624 73.9712 59.2557 76.5963 57.8304C77.3151 57.4401 77.7627 56.8593 78.056 56.13C76.7718 55.3947 75.5357 54.687 74.3849 54.0281C74.1583 54.3651 74.0182 54.7943 73.7293 54.9538C73.2523 55.2171 72.6841 55.4246 72.1457 55.4468C70.4822 55.5154 68.9388 55.0032 67.482 54.2339C66.8598 53.9053 66.2673 53.5203 65.6041 53.127C65.5286 54.0532 64.8231 54.1318 64.1836 54.291C63.9799 54.3417 63.7692 54.3648 63.5617 54.4005C63.5736 54.4371 63.5854 54.4737 63.6567 54.5525ZM76.2459 59.5982C75.6477 59.7755 75.0495 59.9528 74.3596 60.1572C79.4111 62.1922 84.5745 63.144 89.9627 62.9394C86.3876 60.9541 82.8125 58.9687 79.2324 56.9806C78.8918 57.8972 78.3403 58.6467 77.4165 59.0715C77.0509 59.2397 76.684 59.4052 76.2459 59.5982ZM66.4518 61.5244C66.0589 61.7376 65.666 61.9509 65.2159 62.1952C69.0046 63.0675 72.7362 63.9848 76.6187 62.5694C76.4665 62.4954 76.3846 62.4377 76.2939 62.4141C75.0323 62.0862 73.8743 61.5181 72.8162 60.7793C72.0767 60.263 71.2923 59.9288 70.4314 59.6862C69.5324 59.4329 68.6662 59.0634 67.78 58.7426C67.8121 59.8497 67.5247 60.8353 66.4518 61.5244ZM81.2667 63.7054C80.8771 63.6092 80.4914 63.4895 80.0968 63.4224C79.5567 63.3305 79.0477 63.1498 78.4553 63.3616C77.1755 63.819 75.8576 64.1693 74.5578 64.5716C74.4279 64.6118 74.2728 64.6792 74.2019 64.7833C73.7811 65.4019 73.3816 66.035 72.9528 66.6975C76.7004 66.6462 80.0926 65.4467 83.4772 64.1107C82.7392 63.985 82.0388 63.8658 81.2667 63.7054ZM54.4997 80.7212C54.0092 81.2425 53.4373 81.5985 52.7036 81.6719C51.9967 81.7427 51.2941 81.8547 50.5877 81.9303C49.7149 82.0236 48.874 82.1701 48.2893 83.074C50.3063 82.4302 52.2875 81.963 54.3406 82.0494C56.3741 82.135 58.4043 82.2999 60.4359 82.43C60.4442 82.3888 60.4525 82.3476 60.4608 82.3063C60.1904 82.2469 59.9228 82.1635 59.6491 82.1322C58.7 82.0237 57.7473 81.946 56.7991 81.8307C56.3136 81.7717 56.0112 81.4527 56.0691 80.9735C56.1274 80.4918 56.2583 79.9994 56.4589 79.5579C57.2163 77.8911 58.0193 76.245 58.7906 74.5844C58.8569 74.4417 58.8152 74.2488 58.8237 74.0793C58.7649 74.0689 58.706 74.0586 58.6472 74.0482C58.2392 74.8571 57.828 75.6645 57.4238 76.4753C56.6599 78.0078 55.8824 79.5304 54.4997 80.7212ZM27.5591 37.4924C27.4941 37.495 27.4277 37.4894 27.3645 37.5013C25.4977 37.85 23.6202 38.0684 21.716 37.9931C21.5805 37.9878 21.442 38.06 21.3048 38.0961C21.4714 38.2201 21.6252 38.2578 21.7812 38.281C22.3719 38.3689 22.9638 38.4484 23.5542 38.5378C24.906 38.7424 26.2568 38.8552 27.597 38.4707C28.4568 38.224 29.2408 37.8418 29.9306 37.0947C29.0992 37.2333 28.3711 37.3546 27.5591 37.4924ZM37.947 80.9818C37.8212 81.0056 37.6961 81.0435 37.5693 81.0509C36.402 81.1197 35.2321 81.1567 34.0677 81.258C33.3517 81.3202 32.6639 81.522 32.1382 82.0846C33.3475 81.9319 34.5271 81.7363 35.7146 81.646C36.894 81.5562 38.0831 81.5202 39.2649 81.5569C40.4126 81.5926 41.5566 81.7506 42.7022 81.8548C42.0873 81.6651 41.4708 81.5535 40.8536 81.4456C40.1858 81.3288 39.5987 81.1238 39.6096 80.3473C39.0657 80.5577 38.5465 80.7586 37.947 80.9818ZM62.6878 62.407C62.7201 62.4078 62.7531 62.4132 62.7845 62.4082C62.8082 62.4044 62.8299 62.3874 62.8872 62.3591C62.5833 62.249 62.3066 62.1482 62.0294 62.0488C61.7466 61.9474 61.4633 61.8475 61.168 61.7426C61.0266 61.943 60.8837 62.1456 60.7439 62.3439C60.7825 62.3778 60.7931 62.3952 60.8038 62.3952C61.4028 62.399 62.0018 62.4014 62.6878 62.407Z"
      stroke="#FFF5EE"
      stroke-width="2"
      mask="url(#path-1-inside-1_54_175)"
    />
    <path
      d="M63.1204 39.8798C59.6333 41.712 56.2169 43.602 52.5 44.8726C49.0242 46.0608 45.5078 47.0768 41.8746 47.6353C39.4756 48.004 37.0473 48.155 34.6393 47.8264C31.9389 47.4579 29.4653 46.4672 27.4854 44.5129C26.4357 43.4768 25.8559 42.1337 25.2973 40.7927C25.2124 40.589 25.1268 40.3856 25.0676 40.2445C25.9746 40.1181 26.9256 40.0676 27.8331 39.8422C29.7394 39.3685 31.3191 38.3625 32.4951 36.7463C32.6394 36.548 33.0259 36.4619 33.3089 36.4405C34.1985 36.3733 35.0921 36.3449 35.9845 36.3328C37.1398 36.3171 38.2956 36.322 39.4507 36.3434C39.6283 36.3467 39.8589 36.4381 39.9711 36.5691C41.1753 37.9754 42.6565 38.8044 44.5354 38.8932C47.1149 39.0152 49.1933 37.994 50.5978 35.9039C52.0688 33.715 51.8658 31.3306 50.743 29.031C49.4954 26.4757 47.0259 25.4774 44.3899 25.75C41.9078 26.0067 39.2553 28.037 38.7299 30.7733C38.4639 32.159 38.4282 33.5342 39.0545 34.8807C37.58 34.8807 36.1354 34.8743 34.6909 34.8844C34.2205 34.8876 33.7486 34.9704 33.2809 34.9467C33.0134 34.9332 32.7069 34.8381 32.4981 34.6763C31.8313 34.1595 31.1868 33.6111 30.5611 33.0446C29.1039 31.7254 26.5954 30.9672 24.6599 31.3351C24.8171 30.5982 24.905 29.8775 25.1284 29.2016C25.6113 27.7407 26.1072 26.2792 26.7006 24.8609C27.6076 22.6931 29.2323 21.0762 31.0411 19.655C33.7826 17.501 36.8864 16.149 40.3597 15.7122C45.9567 15.0084 51.1871 16.1189 55.7686 19.4039C59.6792 22.2079 62.142 26.1234 63.2827 30.8302C63.7578 32.7904 64.0484 34.7756 63.9509 36.7941C63.9099 37.6436 63.7435 38.4902 63.5827 39.3282C63.545 39.5251 63.299 39.682 63.1204 39.8798Z"
      fill="#FFF5EE"
      stroke="#FFF5EE"
    />
    <path
      d="M26.9989 66.8475C25.3123 65.0144 24.0719 62.9692 23.4368 60.5768C22.4435 56.8348 22.8643 53.2059 24.3836 49.697C24.9688 48.3455 25.7355 47.0725 26.4462 45.7127C27.0482 46.1745 27.5307 46.5703 28.0388 46.9298C29.7979 48.1746 31.781 48.8295 33.8987 49.1228C36.6407 49.5025 39.3759 49.3385 42.1074 49.0142C42.7417 48.9389 43.3686 48.8022 43.9039 48.7101C43.9675 50.0839 43.9417 51.4185 44.1119 52.7277C44.3275 54.3857 45.1697 55.8128 46.0699 57.1988C47.8135 59.8836 50.0853 61.9316 53.1313 63.0163C54.8865 63.6413 56.7113 64.042 58.524 63.3545C59.33 63.0487 60.0013 63.2485 60.7488 63.3749C62.2932 63.6361 63.8457 63.8528 65.3987 64.0586C66.6351 64.2224 67.8766 64.3502 69.1172 64.4802C70.1002 64.5832 71.0853 64.6654 72.123 64.7618C71.8098 65.6092 71.3445 66.3318 70.7667 66.9803C68.6803 69.322 66.193 71.1271 63.3573 72.454C62.5283 72.8418 61.6764 73.1803 60.843 73.559C60.5342 73.6993 60.3552 73.5829 60.1189 73.3823C59.6792 73.0092 59.1991 72.6793 58.7128 72.3673C58.4254 72.1829 58.165 72.2728 57.9774 72.5796C57.6997 73.0336 57.3521 73.4521 57.1279 73.9297C56.8388 74.5456 56.346 74.7283 55.7406 74.7922C53.8726 74.9892 52.008 75.2239 50.137 75.3854C48.4142 75.5341 46.6955 75.3652 44.9963 75.0833C42.0731 74.5983 39.2084 73.8609 36.4298 72.8314C32.8768 71.5149 29.6364 69.6825 26.9989 66.8475Z"
      stroke="#FFF5EE"
    />
    <path
      d="M45.4211 50.6814C45.4176 50.0147 45.3967 49.3956 45.4237 48.7786C45.4301 48.6336 45.5793 48.3911 45.6953 48.3697C49.252 47.7142 52.6609 46.5805 55.9459 45.0987C58.0381 44.1549 60.0588 43.0523 62.1114 42.0205C62.7744 41.6872 63.4319 41.342 64.1037 41.0273C64.2376 40.9645 64.4519 40.9596 64.5838 41.0228C68.4372 42.8676 71.799 45.3509 74.4219 48.7537C75.4963 50.1477 76.4974 51.5993 77.5004 53.0465C77.7676 53.432 77.9188 53.8981 78.083 54.3648C76.2302 53.5494 74.5775 52.344 72.5733 51.8374C72.7839 52.3155 72.9646 52.7562 73.171 53.1846C73.3378 53.5305 73.1827 53.696 72.879 53.8102C71.9189 54.1714 70.9742 53.9952 70.0247 53.7492C68.3301 53.3104 66.8152 52.4698 65.2863 51.6588C65.1876 51.6065 65.0918 51.5488 65.0887 51.547C64.884 51.9218 64.7704 52.3903 64.4727 52.6194C63.9014 53.0589 63.1789 53.0505 62.4701 52.9774C60.1868 52.7416 57.972 52.1993 55.7798 51.5384C55.2504 51.3788 54.6918 51.316 54.1466 51.2088C54.1244 51.2591 54.1023 51.3095 54.0801 51.3599C54.2114 51.4575 54.3408 51.5576 54.4741 51.6524C56.225 52.8969 58.1778 53.6379 60.2847 54.0123C60.6067 54.0694 60.9385 54.2012 61.2117 54.3807C62.6425 55.3205 64.0643 56.2746 65.4718 57.249C66.2413 57.7817 66.6483 58.9372 66.2853 59.6359C65.8902 60.3962 65.1624 60.7508 64.344 60.831C62.9899 60.9636 61.7173 60.6031 60.5268 59.9859C58.6383 59.0068 56.7732 57.984 55.0632 56.5117C55.3505 57.6332 56.093 58.2692 56.8329 58.8802C57.7791 59.6614 58.7727 60.3852 59.777 61.1577C58.996 61.7952 58.1124 62.1626 57.1033 62.2058C54.7765 62.3054 52.7361 61.5365 50.8953 60.1536C48.617 58.442 46.9274 56.2787 45.8645 53.6329C45.4906 52.7024 45.3908 51.7248 45.4211 50.6814Z"
      fill="#FFF5EE"
      stroke="#FFF5EE"
    />
    <path
      d="M47.5577 36.826C44.5232 38.4422 40.8697 36.936 40.136 33.6263C39.4832 30.682 40.9369 27.9455 44.3583 27.2448C47.8608 26.5275 50.118 29.5392 50.1046 32.1454C50.0942 34.1593 49.3238 35.7392 47.5577 36.826ZM46.1574 31.537C46.5079 31.4359 46.8861 31.3873 47.2017 31.2203C47.5934 31.013 47.8071 30.6432 47.749 30.1679C47.6653 29.4826 47.1989 28.9375 46.5367 28.7484C45.4774 28.4458 44.4542 29.2675 44.6369 30.3048C44.7741 31.0838 45.3617 31.3988 46.1574 31.537Z"
      fill="#FFF5EE"
      stroke="#FFF5EE"
    />
    <path
      d="M20.9364 34.1171C22.1119 33.7243 23.2681 33.3926 24.3882 32.966C26.2247 32.2664 27.7985 32.8381 29.2603 33.9096C29.9479 34.4136 30.5521 35.0315 31.2486 35.6459C30.3333 35.8097 29.4326 35.9836 28.5276 36.1306C24.6431 36.7616 20.7274 36.9246 16.7987 36.9394C15.54 36.9442 14.2817 37.0794 12.9561 37.159C15.431 35.6104 18.1913 34.938 20.9364 34.1171Z"
      fill="#FFF5EE"
      stroke="#FFF5EE"
    />
    <path
      d="M63.627 54.5314C63.5854 54.4737 63.5736 54.4371 63.5617 54.4005C63.7692 54.3648 63.9799 54.3417 64.1836 54.291C64.8231 54.1318 65.5286 54.0532 65.6041 53.127C66.2673 53.5203 66.8598 53.9052 67.482 54.2338C68.9388 55.0032 70.4822 55.5154 72.1457 55.4468C72.6841 55.4245 73.2523 55.2171 73.7293 54.9538C74.0182 54.7942 74.1583 54.3651 74.3848 54.0281C75.5357 54.6869 76.7718 55.3947 78.056 56.1299C77.7627 56.8593 77.3151 57.4401 76.5963 57.8304C73.9712 59.2557 71.3602 58.8624 68.8544 57.6208C67.0565 56.7299 65.3847 55.5844 63.627 54.5314Z"
      fill="#FFF5EE"
      stroke="#FFF5EE"
    />
    <path
      d="M76.2818 59.5851C76.684 59.4052 77.0509 59.2397 77.4165 59.0715C78.3403 58.6467 78.8918 57.8972 79.2324 56.9806C82.8125 58.9687 86.3876 60.9541 89.9627 62.9394C84.5745 63.144 79.4111 62.1922 74.3596 60.1572C75.0495 59.9527 75.6477 59.7755 76.2818 59.5851Z"
      fill="#FFF5EE"
      stroke="#FFF5EE"
    />
    <path
      d="M66.4796 61.5025C67.5247 60.8353 67.8121 59.8497 67.78 58.7426C68.6662 59.0634 69.5324 59.4329 70.4314 59.6862C71.2923 59.9288 72.0767 60.2629 72.8162 60.7793C73.8743 61.5181 75.0323 62.0862 76.2939 62.4141C76.3846 62.4377 76.4665 62.4954 76.6187 62.5693C72.7362 63.9848 69.0046 63.0674 65.2159 62.1951C65.666 61.9509 66.0589 61.7376 66.4796 61.5025Z"
      fill="#FFF5EE"
      stroke="#FFF5EE"
    />
    <path
      d="M81.3026 63.726C82.0388 63.8658 82.7392 63.985 83.4772 64.1107C80.0926 65.4467 76.7004 66.6462 72.9528 66.6975C73.3816 66.035 73.7811 65.4019 74.2019 64.7833C74.2728 64.6792 74.4279 64.6118 74.5578 64.5716C75.8576 64.1693 77.1755 63.819 78.4553 63.3616C79.0477 63.1498 79.5567 63.3305 80.0969 63.4224C80.4914 63.4895 80.8771 63.6092 81.3026 63.726Z"
      fill="#FFF5EE"
      stroke="#FFF5EE"
    />
    <path
      d="M54.5249 80.6973C55.8824 79.5303 56.6599 78.0078 57.4238 76.4753C57.828 75.6644 58.2392 74.8571 58.6472 74.0482C58.706 74.0586 58.7649 74.0689 58.8237 74.0792C58.8152 74.2488 58.8569 74.4416 58.7906 74.5844C58.0193 76.245 57.2163 77.891 56.4589 79.5578C56.2583 79.9994 56.1274 80.4918 56.0691 80.9735C56.0112 81.4527 56.3136 81.7716 56.7991 81.8307C57.7473 81.946 58.7 82.0237 59.6491 82.1322C59.9227 82.1635 60.1904 82.2468 60.4608 82.3063C60.4525 82.3475 60.4442 82.3887 60.4359 82.43C58.4043 82.2999 56.3741 82.135 54.3406 82.0494C52.2875 81.963 50.3063 82.4301 48.2893 83.0739C48.874 82.1701 49.7149 82.0236 50.5877 81.9302C51.2941 81.8547 51.9967 81.7427 52.7036 81.6719C53.4373 81.5984 54.0092 81.2425 54.5249 80.6973Z"
      fill="#FFF5EE"
      stroke="#FFF5EE"
    />
    <path
      d="M27.6011 37.4842C28.3712 37.3546 29.0992 37.2333 29.9306 37.0947C29.2408 37.8417 28.4568 38.224 27.597 38.4707C26.2568 38.8552 24.906 38.7424 23.5542 38.5377C22.9638 38.4484 22.3719 38.3689 21.7812 38.281C21.6252 38.2578 21.4714 38.2201 21.3049 38.0961C21.442 38.06 21.5805 37.9878 21.716 37.9931C23.6202 38.0684 25.4977 37.85 27.3645 37.5012C27.4277 37.4894 27.4941 37.4949 27.6011 37.4842Z"
      fill="#FFF5EE"
      stroke="#FFF5EE"
    />
    <path
      d="M37.9872 80.9706C38.5465 80.7586 39.0657 80.5577 39.6096 80.3473C39.5987 81.1238 40.1858 81.3288 40.8536 81.4456C41.4708 81.5535 42.0873 81.665 42.7022 81.8548C41.5566 81.7505 40.4126 81.5926 39.2649 81.5569C38.0831 81.5202 36.894 81.5562 35.7146 81.6459C34.5271 81.7363 33.3475 81.9318 32.1382 82.0846C32.6639 81.522 33.3517 81.3202 34.0677 81.2579C35.2321 81.1567 36.402 81.1197 37.5693 81.0509C37.6961 81.0434 37.8212 81.0056 37.9872 80.9706Z"
      fill="#FFF5EE"
      stroke="#FFF5EE"
    />
    <path
      d="M62.6444 62.4054C62.0019 62.4014 61.4028 62.399 60.8038 62.3952C60.7931 62.3952 60.7826 62.3778 60.7439 62.3439C60.8837 62.1456 61.0266 61.943 61.168 61.7426C61.4633 61.8475 61.7466 61.9474 62.0294 62.0488C62.3066 62.1482 62.5833 62.249 62.8872 62.3591C62.8299 62.3874 62.8082 62.4044 62.7845 62.4082C62.7531 62.4132 62.7201 62.4078 62.6444 62.4054Z"
      fill="#FFF5EE"
      stroke="#FFF5EE"
    />
    <path
      d="M47.2446 81.9858C47.2679 81.9811 47.3125 82.0087 47.3366 82.0566C47.2993 82.0573 47.2825 82.0377 47.2446 81.9858Z"
      fill="#FFF5EE"
      stroke="#FFF5EE"
    />
    <path
      d="M46.1167 31.5364C45.3617 31.3988 44.7741 31.0838 44.6369 30.3048C44.4541 29.2675 45.4774 28.4458 46.5367 28.7484C47.1989 28.9376 47.6653 29.4826 47.749 30.1679C47.8071 30.6432 47.5934 31.013 47.2017 31.2203C46.8861 31.3873 46.5079 31.4359 46.1167 31.5364Z"
      fill="#FFF5EE"
      stroke="#FFF5EE"
    />
  </g>
  <defs>
    <clipPath id="clip0_54_175">
      <rect width="100" height="100" fill="white" />
    </clipPath>
  </defs>
</svg>
